Coordinates
version=1
nRows=17
nColumns=24
inDegrees=yes

Units are S.I. units (second, meters, Newtons, ...)
Angles are in degrees.

endheader
time	pelvis_tilt	pelvis_list	pelvis_rotation	pelvis_tx	pelvis_ty	pelvis_tz	hip_flexion_r	hip_adduction_r	hip_rotation_r	knee_angle_r	ankle_angle_r	subtalar_angle_r	mtp_angle_r	hip_flexion_l	hip_adduction_l	hip_rotation_l	knee_angle_l	ankle_angle_l	subtalar_angle_l	mtp_angle_l	lumbar_extension	lumbar_bending	lumbar_rotation
      1.00450000	     -9.25773164	     -1.38392130	     -6.13682994	      0.05020613	      1.01163991	      0.29547769	     -7.84244414	      2.30897411	      2.07118710	    -13.93273786	     17.66840596	      4.66957839	     10.34414291	     34.61774304	     -5.22371327	      2.42475820	     -0.24438946	      3.09020151	     -2.72531076	      5.48666966	     -8.36590873	      3.31617016	      6.41805868
      1.00866667	     -9.27785072	     -1.26104847	     -6.26628005	      0.05666108	      1.01095735	      0.29510595	     -7.88354693	      2.06205043	      1.96089070	    -14.53587465	     17.59302920	      5.05305069	     10.72451256	     34.67164970	     -5.08145214	      2.48735210	     -0.89758048	      2.77850727	     -2.90351822	      5.55386785	     -8.28712577	      3.10313033	      6.48033499
      1.01283333	     -9.23398939	     -1.10590858	     -6.38268629	      0.06317846	      1.01045246	      0.29476263	     -8.00480020	      1.78148909	      1.90402973	    -15.09856651	     17.33652724	      5.22034482	     13.53192599	     34.63085100	     -4.90092045	      2.55450452	     -1.51244749	      2.37596087	     -3.10562011	      6.13424404	     -8.28817931	      2.81896761	      6.44082972
      1.01700000	     -9.30596775	     -0.95086052	     -6.50590667	      0.06972663	      1.00980648	      0.29443005	     -7.98440378	      1.51943055	      1.90673000	    -15.70110049	     17.09440221	      5.36601103	     13.58099902	     34.75474001	     -4.73472998	      2.52102246	     -2.23612695	      2.02858251	     -3.14487543	      6.13859617	     -8.11341005	      2.54479039	      6.43920872
      1.02116667	     -9.33834039	     -0.79180146	     -6.61695247	      0.07624175	      1.00925864	      0.29403528	     -7.96120796	      1.23697153	      1.79463310	    -16.38899837	     16.90049442	      5.68449663	     13.72710249	     34.85072618	     -4.55359553	      2.47449675	     -2.99316099	      1.64550828	     -3.22144246	      6.16256627	     -8.00902918	      2.27607778	      6.46480527
      1.02533333	     -9.36040012	     -0.60999466	     -6.71655817	      0.08281359	      1.00880978	      0.29367495	     -7.95874635	      0.94209801	      1.76422520	    -17.04600243	     16.56652809	      5.81212063	     13.82356349	     34.92827135	     -4.35074717	      2.41256325	     -3.74400320	      1.21897259	     -3.28236231	      6.17402992	     -7.90351060	      1.95260863	      6.42037779
      1.02950000	     -9.38243285	     -0.43824008	     -6.80415883	      0.08931962	      1.00837433	      0.29320824	     -7.89237162	      0.63935426	      1.59050761	    -17.82922339	     16.29352219	      6.17904884	     14.20035243	     35.04029752	     -4.14736084	      2.33957027	     -4.56496358	      0.83481746	     -3.34062510	      6.23369015	     -7.81027260	      1.67361739	      6.42755004
      1.03366667	     -9.40742298	     -0.24836579	     -6.88058770	      0.09587725	      1.00802246	      0.29277992	     -7.83643950	      0.33462644	      1.53005264	    -18.56590703	     15.86770643	      6.26641815	     17.06920112	     35.16770960	     -3.93002866	      2.18166486	     -5.41820834	      0.41142461	     -3.34330416	      6.67717529	     -7.70604356	      1.34785047	      6.37876601
      1.03783333	     -9.43680033	     -0.05868945	     -6.95043073	      0.10241777	      1.00771034	      0.29232027	     -7.73950397	      0.02698198	      1.43567694	    -19.37426506	     15.47966395	      6.44741737	     17.13287247	     35.30569145	     -3.71227713	      2.06583379	     -6.29096670	      0.02093548	     -3.37362854	      6.67541006	     -7.58996478	      1.03637929	      6.32535278
      1.04200000	     -9.45627998	      0.14492235	     -7.00758580	      0.10896380	      1.00747747	      0.29185150	     -7.63209043	     -0.29355650	      1.34448531	    -20.21320503	     15.01785985	      6.59500491	     17.22123097	     35.44333378	     -3.47891386	      1.91460706	     -7.18602066	     -0.34984786	     -3.37057995	      6.67370996	     -7.48681621	      0.68637560	      6.25668099
      1.04616667	     -9.49059820	      0.33399242	     -7.05061159	      0.11546219	      1.00724610	      0.29131528	     -7.46167473	     -0.60392052	      1.19942956	    -21.14384783	     14.58226338	      6.81661972	     17.42638039	     35.63453641	     -3.25634302	      1.71759142	     -8.16220454	     -0.63816042	     -3.29036667	      6.67633831	     -7.37396523	      0.38437602	      6.19873166
      1.05033333	     -9.49240619	      0.54648845	     -7.08061368	      0.12201870	      1.00716051	      0.29080837	     -7.32916718	     -0.93067143	      1.11669139	    -22.05034004	     13.98955287	      6.90129612	     17.55487457	     35.76712522	     -3.00677500	      1.55141022	     -9.09604984	     -0.93129027	     -3.26224930	      6.67425627	     -7.28948896	      0.01126256	      6.11222418
      1.05450000	     -9.52678398	      0.73592151	     -7.10537123	      0.12847846	      1.00701391	      0.29022593	     -7.09134699	     -1.24364886	      0.95203927	    -23.09734934	     13.51348083	      7.13213404	     17.90711130	     35.98674810	     -2.78625474	      1.29159893	    -10.13974792	     -1.10495098	     -3.05599627	      6.67424628	     -7.18291673	     -0.27773081	      6.03877576
      1.05866667	     -9.53792249	      0.93650361	     -7.11564351	      0.13496728	      1.00697731	      0.28964568	     -6.86999857	     -1.56359474	      0.82684690	    -24.14529670	     12.91243797	      7.25267757	     18.35950819	     36.16467589	     -2.54928826	      1.05250100	    -11.15298810	     -1.26161512	     -2.87240866	      6.66798774	     -7.09761023	     -0.60878540	      5.94238784
      1.06283333	     -9.46401872	      1.12299301	     -7.12386003	      0.14144779	      1.00715566	      0.28912359	     -6.73975280	     -1.86316270	      0.78145395	    -25.16684046	     12.13397920	      7.16716992	     21.67865524	     36.25486183	     -2.32840987	      0.74790499	    -12.18728667	     -1.28726833	     -2.55598056	      6.57695523	     -7.13941940	     -0.96616644	      5.85736920
      1.06700000	     -9.48539689	      1.32233455	     -7.08295976	      0.14791704	      1.00717685	      0.28841409	     -6.44788301	     -2.18519721	      0.59192113	    -26.32041266	     11.47238923	      7.36421622	     21.77559564	     36.41433112	     -2.05501723	      0.68320573	    -13.13583735	     -1.46950994	     -2.60615273	      6.56703839	     -7.03692796	     -1.28264858	      5.74270806
      1.07116667	     -9.46059783	      1.52396901	     -7.05437977	      0.15436653	      1.00732831	      0.28776311	     -6.17854213	     -2.50928475	      0.45586841	    -27.50906075	     10.76668878	      7.46588424	     21.92208168	     36.52077844	     -1.79403011	      0.51291493	    -14.08565224	     -1.54275936	     -2.48215805	      6.55208452	     -7.00264035	     -1.61678421	      5.62007009
